# xmcd
#
# Track frame offsets:
#	150
#	24535
#	45228
#	65301
#	83354
#	107012
#	126935
#	146596
#
# Disc length: 2226 seconds
#
# Revision: 14
# Processed by: cddbd v1.5.2PL0 Copyright (c) Steve Scherf et al.
# Submitted via: Jack! The Knife 20 Magnifico
#
DISCID=5c08b008
DTITLE=Necrodeath - Fragments Of Insanity
DYEAR=1989
DGENRE=Metal
TTITLE0=Choose Your Death
TTITLE1=Tanathoid
TTITLE2=State Of Progressive Annihilation
TTITLE3=Metempsychosis
TTITLE4=Fragments Of Insanity
TTITLE5=Enter My Subconscious
TTITLE6=Stillbirth
TTITLE7=Eucharistical Sacrifice
EXTD=
EXTT0=
EXTT1=
EXTT2=
EXTT3=
EXTT4=
EXTT5=
EXTT6=
EXTT7=
PLAYORDER=
